Coordinates
version=1
nRows=16
nColumns=36
inDegrees=yes

Units are S.I. units (second, meters, Newtons, ...)
If the header above contains a line with 'inDegrees', this indicates whether rotational values are in degrees (yes) or radians (no).

endheader
time	pelvis_tilt	pelvis_list	pelvis_rotation	pelvis_tx	pelvis_ty	pelvis_tz	hip_flexion_r	hip_adduction_r	hip_rotation_r	knee_angle_r	knee_angle_r_beta	ankle_angle_r	subtalar_angle_r	mtp_angle_r	hip_flexion_l	hip_adduction_l	hip_rotation_l	knee_angle_l	knee_angle_l_beta	ankle_angle_l	subtalar_angle_l	mtp_angle_l	lumbar_extension	lumbar_bending	lumbar_rotation	arm_flex_r	arm_add_r	arm_rot_r	elbow_flex_r	pro_sup_r	arm_flex_l	arm_add_l	arm_rot_l	elbow_flex_l	pro_sup_l
      4.35000000	    -20.97701961	     -4.70076956	     15.19682104	      1.01702682	      0.62253645	      0.04130165	     84.11630799	    -18.07117579	     -1.51447860	    100.46467037	      1.75343928	     41.58307516	     -0.68515507	     -7.49999987	     85.26647651	    -21.61014192	     -3.54089614	     97.92667074	      1.70914283	     30.72002681	      1.83122322	     -7.49999987	    -32.52435218	     -5.14489505	      5.02664601	    108.43100438	     12.69934843	     70.64245155	    107.79988305	     72.85599880	     96.87700808	      4.08483255	     50.53810641	    112.74223003	     73.39462728
      4.36666670	    -20.84939432	     -4.38784074	     14.87766422	      1.01791128	      0.64160836	      0.03541639	     81.63058988	    -17.58459047	     -1.99921180	     97.37088633	      1.69944256	     40.81520758	     -1.45899364	     -7.49999987	     82.38046328	    -21.01001389	     -4.48276471	     94.91173123	      1.65652221	     30.35759716	      1.30011037	     -7.49999987	    -31.88982435	     -5.46485104	      4.59440685	    107.53094536	     12.71970108	     71.41832195	    108.60837094	     72.73651797	     95.82149106	      3.58510513	     50.76576225	    112.44621285	     72.77026712
      4.38333330	    -19.85785612	     -3.88047930	     14.98180049	      1.01691388	      0.65850132	      0.03511213	     78.79324135	    -17.44274073	     -2.06535833	     94.79140511	      1.65442212	     39.92206764	     -1.69687989	     -7.49999987	     78.81805433	    -20.26865570	     -5.38351540	     91.98362342	      1.60541709	     29.99641939	      1.05721041	     -7.49999987	    -31.81642799	     -5.67240514	      4.66337422	    107.04279799	     12.31358495	     71.58132989	    108.80422230	     72.64301853	     95.28879117	      3.97200146	     51.02460967	    112.08230170	     72.05667213
      4.40000000	    -19.07450688	     -3.43644565	     15.22645901	      1.02096579	      0.66782640	      0.03214417	     76.06433275	    -17.60828560	     -2.25459424	     92.35098776	      1.61182880	     39.22094240	     -2.26258338	     -7.49999987	     75.70616455	    -19.48141754	     -6.18943592	     89.43883971	      1.56100223	     29.92665778	      0.92205911	     -7.49999987	    -31.17017187	     -5.73162232	      4.91914159	    106.39208980	     11.96896292	     71.33955919	    109.59106378	     72.67635813	     94.77518524	      4.65734110	     51.20643773	    112.43886312	     71.52871605
      4.41666670	    -18.24497935	     -2.97104016	     15.74548218	      1.01994836	      0.68499187	      0.03258672	     73.31553760	    -17.94950117	     -2.52396698	     89.80377818	      1.56737161	     38.46981354	     -2.67358239	     -7.49999987	     72.43380332	    -18.50326377	     -7.10683771	     86.45383672	      1.50890410	     29.84001861	      1.15341357	     -7.49999987	    -30.56333141	     -5.72816300	      5.06580895	    105.65269807	     11.50489900	     71.13350820	    110.15690275	     72.53994780	     94.41085289	      5.02792826	     52.08897355	    110.95593707	     70.92530531
      4.43333330	    -17.28016284	     -2.49666349	     15.98123085	      1.02864196	      0.70820643	      0.02542420	     69.81995168	    -18.11679367	     -2.93775579	     86.57961300	      1.51109931	     37.37365031	     -3.22093286	     -7.49999987	     68.57039145	    -17.60101518	     -8.14148057	     83.09549764	      1.45029003	     29.40031908	      0.86402009	     -7.49999987	    -29.76708759	     -5.59568080	      5.31992081	    103.34351972	     11.37501966	     71.34901107	    110.84248450	     72.15554525	     91.89029997	      5.78382303	     53.69170840	    111.22457262	     70.40209597
      4.45000000	    -16.61907364	     -2.13190739	     16.11962171	      1.02754236	      0.71940987	      0.02532130	     67.09465142	    -18.31850049	     -3.46158898	     83.68289484	      1.46054204	     36.36587036	     -3.19749695	     -7.49999987	     65.50986587	    -16.82336766	     -8.94042832	     80.08405513	      1.39773044	     28.90101417	      0.88384659	     -7.49999987	    -28.88238033	     -5.53883196	      5.28637116	    101.35989508	     11.26421396	     70.89423528	    111.07212348	     72.49932077	     91.14699276	      6.34234321	     53.99777127	    111.55051467	     70.55178426
      4.46666670	    -15.72814477	     -1.56827858	     16.02552701	      1.03511006	      0.74573929	      0.02556491	     63.46089183	    -18.07485154	     -4.00777777	     79.77674371	      1.39236684	     34.89643220	     -3.64074390	     -7.49999987	     61.29209772	    -16.11990871	    -10.21869725	     76.00999919	      1.32662475	     27.84750085	      0.85009597	     -7.49999987	    -28.08055182	     -6.12357859	      5.64673208	     98.17812126	     10.76164334	     69.57786997	    111.48025333	     73.52445397	     88.82611131	      6.48435461	     54.66014544	    110.62255811	     70.47952848
      4.48333330	    -15.60563898	     -1.45107955	     15.33499448	      1.03929386	      0.76000787	      0.02201306	     60.68029386	    -17.51535263	     -4.81278336	     75.74888025	      1.32206737	     33.76715679	     -3.20954523	     -7.49999987	     58.05242534	    -15.81440557	    -10.99868595	     71.98057952	      1.25629811	     27.23777062	      1.20083325	     -7.49999987	    -26.43098438	     -6.32571985	      5.65359466	     95.96271408	     11.23643240	     69.57202359	    111.75695166	     74.07990560	     86.86024048	      6.73484079	     53.93762911	    111.14719510	     70.59839896
      4.50000000	    -15.07985367	     -1.26200227	     14.90377244	      1.03906983	      0.78106531	      0.02299416	     57.47865711	    -17.09080575	     -5.72638697	     71.37758950	      1.24577395	     32.25360592	     -3.01317497	     -7.49999987	     54.71598958	    -15.41622661	    -11.81840080	     68.03632366	      1.18745786	     25.83918175	      1.09087416	     -7.49999987	    -24.94531664	     -6.48493203	      6.52966768	     94.20379355	     11.18549924	     68.89383361	    110.87662235	     73.76172156	     84.73279689	      6.70944790	     53.76211325	    110.34528909	     70.08774947
      4.51666670	    -14.56430541	     -1.23263812	     14.67302805	      1.04706471	      0.79862573	      0.02182450	     54.05787046	    -16.61828745	     -6.78460903	     66.85021819	      1.16675641	     30.76186178	     -3.02536991	     -7.49999987	     51.46166651	    -15.02034327	    -12.33274344	     63.95027577	      1.11614287	     24.52714122	      1.27849442	     -7.49999987	    -23.63538244	     -6.52490187	      6.87935065	     92.07847770	     11.51440087	     67.78519564	    110.37342686	     82.85592107	     82.77840251	      7.13842561	     52.59874544	    110.21761249	     72.46140592
      4.53333330	    -14.68961236	     -1.31390366	     14.39115280	      1.04750321	      0.80605635	      0.02104299	     51.97940803	    -16.21911030	     -7.58976031	     63.09147951	      1.10115405	     29.61702068	     -2.78094888	     -7.49999987	     49.14458272	    -14.64184399	    -12.88685659	     60.16882061	      1.05014403	     23.92840706	      1.63366268	     -7.49999987	    -21.60604859	     -6.68065325	      7.35143335	     90.99441245	     11.84060602	     67.47200581	    111.18109386	     82.79841503	     82.03426710	      6.92509727	     52.43359834	    110.12937515	     72.36860447
      4.55000000	    -15.13361405	     -1.32640941	     13.76969884	      1.05214026	      0.82812799	      0.02353895	     49.92228840	    -15.18349803	     -7.79861069	     58.43688838	      1.01991611	     27.95201823	     -2.88569016	     -7.49999987	     46.44378728	    -14.25905622	    -13.84013643	     55.22914693	      0.96393046	     22.75907805	      2.56595016	     -7.49999987	    -19.40922021	     -7.07491619	      7.44296495	     88.88065475	     12.40891949	     67.16374214	    111.54447344	     82.18876735	     80.20110273	      6.24205514	     53.12300330	    110.49466060	     72.03618221
      4.56666670	    -15.39620011	     -1.45274089	     12.83568016	      1.05719393	      0.84353164	      0.02490180	     47.57726661	    -13.59850294	     -7.56072670	     53.52647106	      0.93421316	     25.91398902	     -3.52296378	     -7.49999987	     43.67223202	    -14.24986184	    -14.87824852	     50.43557640	      0.88026687	     21.11109933	      3.19737782	     -7.49999987	    -17.33097503	     -7.46538627	      7.27199516	     86.26447975	     13.61739676	     67.04932005	    111.25716593	     80.45847096	     78.61913080	      5.03299572	     53.43895212	    110.51587264	     70.80544557
      4.58333330	    -15.53906598	     -1.60387244	     11.62071272	      1.06297740	      0.86562325	      0.02148975	     44.76728620	    -12.13523460	     -7.65263427	     47.99475016	      0.83766641	     23.39208227	     -3.64005554	     -7.49999987	     40.46174376	    -14.14563773	    -16.37044530	     45.20814234	      0.78903093	     18.81289132	      3.23026430	     -7.49999987	    -15.48960184	     -7.54355152	      7.24679768	     83.49336617	     14.84572947	     67.83410311	    111.81309879	     81.14531918	     74.70804492	      4.23673791	     53.41162626	    111.79087081	     70.69065093
      4.60000000	    -15.38559771	     -1.78931787	     10.81588785	      1.06738120	      0.87600561	      0.02308671	     41.83094344	    -10.97482377	     -8.04162954	     42.93161421	      0.74929802	     21.34528523	     -3.05965571	     -7.49999987	     37.25316708	    -13.92543415	    -17.52467402	     40.14581864	      0.70067672	     16.75192607	      3.59449732	     -7.49999987	    -13.89616043	     -7.34962093	      7.37673247	     81.26122679	     15.60165921	     67.93589921	    111.63403691	     81.45340285	     71.61744897	      3.83057634	     53.15779775	    112.78157444	     70.79265066
